#N canvas -8 -8 1366 685 12;
#N canvas -8 -8 1366 685 slideblocker&manualsetter 0;
#X obj 267 348 outlet;
#X obj 59 29 inlet;
#X msg 213 109 0;
#X obj 201 213 spigot;
#X obj 59 61 route 0;
#X obj 92 89 key;
#X msg 87 194 1;
#X msg 9 155 1;
#X obj 9 232 expr if($f1 == $f2 \, 1 \, 0);
#X obj 9 179 t f f;
#X obj 92 113 sel 10 48;
#X msg 261 211 1;
#X msg 9 304 0;
#X obj 334 218 f;
#X obj 306 173 route 0;
#X obj 373 143 tgl 15 0 empty empty empty 17 7 0 10 -262144 -1 -1 0
1;
#X msg 385 272 0;
#X msg 368 78 1;
#X obj 306 117 spigot;
#X obj 9 279 sel 1 0;
#X msg 88 261 1;
#X obj 48 303 t b f f;
#X obj 9 255 spigot 1;
#X obj 518 190 spigot;
#X msg 627 156 1;
#X msg 638 180 0;
#X obj 572 264 sel \$1;
#X obj 518 241 t f f;
#X obj 518 125 t f f;
#X obj 306 79 t f b f;
#X obj 92 137 t b b b;
#X obj 123 161 t b b;
#X obj 318 322 t f f;
#X obj 389 347 outlet;
#X connect 1 0 4 0;
#X connect 2 0 8 1;
#X connect 2 0 3 1;
#X connect 3 0 8 1;
#X connect 4 0 7 0;
#X connect 4 1 2 0;
#X connect 4 1 29 0;
#X connect 5 0 10 0;
#X connect 6 0 3 0;
#X connect 7 0 9 0;
#X connect 8 0 22 0;
#X connect 9 0 8 0;
#X connect 9 1 3 1;
#X connect 10 0 30 0;
#X connect 10 1 31 0;
#X connect 11 0 3 1;
#X connect 12 0 21 0;
#X connect 13 0 32 0;
#X connect 14 1 13 1;
#X connect 15 0 18 1;
#X connect 16 0 15 0;
#X connect 17 0 15 0;
#X connect 18 0 14 0;
#X connect 19 0 12 0;
#X connect 19 1 13 0;
#X connect 20 0 22 1;
#X connect 21 0 20 0;
#X connect 21 1 32 0;
#X connect 21 2 22 1;
#X connect 22 0 19 0;
#X connect 23 0 27 0;
#X connect 24 0 23 1;
#X connect 25 0 23 1;
#X connect 26 0 25 0;
#X connect 27 0 32 0;
#X connect 27 1 26 0;
#X connect 28 0 23 0;
#X connect 28 1 26 1;
#X connect 29 0 18 0;
#X connect 29 1 17 0;
#X connect 29 2 28 0;
#X connect 30 0 16 0;
#X connect 30 1 6 0;
#X connect 30 2 24 0;
#X connect 31 0 11 0;
#X connect 31 1 25 0;
#X connect 32 0 0 0;
#X connect 32 1 33 0;
#X restore 450 199 pd slideblocker&manualsetter;
#X floatatom 300 303 5 0 0 0 - - -;
#X floatatom 450 126 5 0 0 2 Enter_Pitches_(MIDI):_0_-_127 - -;
#X obj 522 128 inlet;
#X obj 643 245 outlet;
#X obj 346 304 outlet;
#N canvas -8 -8 1366 685 numberlimit0-127 0;
#X obj 39 20 inlet;
#X obj 317 25 f;
#X obj 39 50 spigot 1;
#X msg 126 59 0;
#X msg 168 58 1;
#X obj 39 80 t f f;
#X obj 39 229 t b b b;
#X obj 160 287 t b b b;
#X obj 317 53 t f f;
#X obj 317 77 outlet;
#X obj 349 105 outlet;
#X obj 100 286 t b b b;
#X obj 326 169 inlet;
#X obj 326 217 + 1;
#X obj 39 145 moses \$1;
#X obj 326 193 t f f;
#X obj 204 99 clip \$1 \$2;
#X obj 378 168 inlet;
#X obj 378 216 + 1;
#X obj 378 192 t f f;
#X obj 100 262 moses \$1;
#X connect 0 0 2 0;
#X connect 1 0 8 0;
#X connect 2 0 5 0;
#X connect 3 0 2 1;
#X connect 4 0 2 1;
#X connect 5 0 14 0;
#X connect 5 1 16 0;
#X connect 6 0 4 0;
#X connect 6 1 1 0;
#X connect 6 2 3 0;
#X connect 7 0 4 0;
#X connect 7 1 1 0;
#X connect 7 2 3 0;
#X connect 8 0 9 0;
#X connect 8 1 10 0;
#X connect 11 0 4 0;
#X connect 11 1 1 0;
#X connect 11 2 3 0;
#X connect 12 0 15 0;
#X connect 13 0 14 1;
#X connect 14 0 6 0;
#X connect 14 1 20 0;
#X connect 15 0 13 0;
#X connect 15 1 16 1;
#X connect 16 0 1 1;
#X connect 17 0 19 0;
#X connect 18 0 20 1;
#X connect 19 0 18 0;
#X connect 19 1 16 2;
#X connect 20 0 11 0;
#X connect 20 1 7 0;
#X restore 300 263 pd numberlimit0-127;
#X obj 363 76 t f f;
#X msg 354 211 range \$1 \$2;
#X obj 354 173 pack f f, f 11;
#X obj 322 1 loadbang;
#X msg 322 50 0;
#X msg 363 51 127;
#X msg 31 218 label \$1;
#N canvas -8 -8 1366 685 (subpatch) 0;
#X obj 109 119 nbx 7 28 0 127 0 0 empty empty Enter\ Pitches\ (MIDI):\ 0\ -\ 127
0 -8 0 15 -262144 -1 -1 0 256;
#N canvas -8 -8 1366 685 slideblocker&manualsetter 0;
#X msg 213 109 0;
#X obj 201 213 spigot;
#X obj 92 89 key;
#X msg 87 194 1;
#X msg 9 155 1;
#X obj 9 232 expr if($f1 == $f2 \, 1 \, 0);
#X obj 9 179 t f f;
#X obj 92 113 sel 10 48;
#X msg 261 211 1;
#X msg 9 304 0;
#X obj 334 218 f;
#X obj 306 174 route 0;
#X obj 373 144 tgl 15 0 empty empty empty 17 7 0 10 -262144 -1 -1 0
1;
#X msg 385 272 0;
#X msg 368 79 1;
#X obj 306 118 spigot;
#X obj 9 279 sel 1 0;
#X msg 88 261 1;
#X obj 48 303 t b f f;
#X obj 9 255 spigot 1;
#X obj 518 190 spigot;
#X msg 627 156 1;
#X msg 638 180 0;
#X obj 572 264 sel \$1;
#X obj 518 241 t f f;
#X obj 518 125 t f f;
#X obj 306 80 t f b f;
#X obj 92 137 t b b b;
#X obj 123 161 t b b;
#X obj 318 322 t f f;
#X obj 389 347 outlet;
#X obj 119 33 inlet;
#X obj 59 61 route \$1;
#X obj 259 351 outlet;
#X obj 37 27 inlet;
#X connect 0 0 5 1;
#X connect 0 0 1 1;
#X connect 1 0 5 1;
#X connect 2 0 7 0;
#X connect 3 0 1 0;
#X connect 4 0 6 0;
#X connect 5 0 19 0;
#X connect 6 0 5 0;
#X connect 6 1 1 1;
#X connect 7 0 27 0;
#X connect 7 1 28 0;
#X connect 8 0 1 1;
#X connect 9 0 18 0;
#X connect 10 0 29 0;
#X connect 11 1 10 1;
#X connect 12 0 15 1;
#X connect 13 0 12 0;
#X connect 14 0 12 0;
#X connect 15 0 11 0;
#X connect 16 0 9 0;
#X connect 16 1 10 0;
#X connect 17 0 19 1;
#X connect 18 0 17 0;
#X connect 18 1 29 0;
#X connect 18 2 19 1;
#X connect 19 0 16 0;
#X connect 20 0 24 0;
#X connect 21 0 20 1;
#X connect 22 0 20 1;
#X connect 23 0 22 0;
#X connect 24 0 29 0;
#X connect 24 1 23 0;
#X connect 25 0 20 0;
#X connect 25 1 23 1;
#X connect 26 0 15 0;
#X connect 26 1 14 0;
#X connect 26 2 25 0;
#X connect 27 0 13 0;
#X connect 27 1 3 0;
#X connect 27 2 21 0;
#X connect 28 0 8 0;
#X connect 28 1 22 0;
#X connect 29 0 33 0;
#X connect 29 1 30 0;
#X connect 31 0 32 1;
#X connect 32 0 4 0;
#X connect 32 1 0 0;
#X connect 32 1 26 0;
#X connect 34 0 32 0;
#X restore 109 155 pd slideblocker&manualsetter;
#X obj 109 180 outlet;
#X obj 110 72 inlet;
#X obj 302 70 inlet;
#X connect 0 0 1 0;
#X connect 1 0 2 0;
#X connect 1 1 0 0;
#X connect 3 0 0 0;
#X connect 4 0 1 1;
#X coords 0 1 100 -1 310 50 1 100 100;
#X restore 2 21 graph;
#X msg 31 192 symbol Enter\\\ Pitches\\\ (MIDI):\\\ \$1\\\ -\\\ \$2
;
#X msg 445 24 \; pd dsp 1 \;;
#X obj 322 25 t b b b;
#N canvas -8 -8 1366 685 acidfilter 0;
#X obj 56 134 mtof;
#X obj 95 445 *~;
#N canvas 704 98 450 300 envelope 0;
#X msg 193 127 1 5;
#X obj 193 162 line~;
#X obj 236 133 pack 0 500;
#X obj 236 107 del 50;
#X obj 193 48 inlet;
#X obj 192 245 outlet~;
#X obj 314 97 inlet;
#X obj 192 193 *~;
#X obj 192 219 *~;
#X connect 0 0 1 0;
#X connect 1 0 7 0;
#X connect 1 0 7 1;
#X connect 2 0 1 0;
#X connect 3 0 2 0;
#X connect 4 0 0 0;
#X connect 4 0 3 0;
#X connect 6 0 2 1;
#X connect 7 0 8 0;
#X connect 7 0 8 1;
#X connect 8 0 5 0;
#X restore 423 241 pd envelope;
#X obj 56 160 phasor~;
#N canvas 704 98 450 300 envelope 0;
#X msg 193 127 1 5;
#X obj 193 162 line~;
#X obj 236 107 del 50;
#X obj 193 48 inlet;
#X obj 192 245 outlet~;
#X obj 314 97 inlet;
#X obj 192 193 *~;
#X obj 192 219 *~;
#X obj 236 133 pack 0 500;
#X connect 0 0 1 0;
#X connect 1 0 6 0;
#X connect 1 0 6 1;
#X connect 2 0 8 0;
#X connect 3 0 0 0;
#X connect 3 0 2 0;
#X connect 5 0 8 1;
#X connect 6 0 7 0;
#X connect 6 0 7 1;
#X connect 7 0 4 0;
#X connect 8 0 1 0;
#X restore 326 192 pd envelope;
#X obj 201 258 *~ 5000;
#X obj 56 305 vcf~ 1;
#X obj 400 164 * 25;
#X obj 193 603 tgl 15 0 empty empty Wah-wah_On/Off 17 7 0 10 -262144
-1 -1 0 1;
#X obj 126 768 *~ 0;
#X obj 8 765 *~ 1;
#X msg 106 701 1;
#X msg 158 699 0;
#X obj 114 663 t b;
#X msg 211 703 1;
#X msg 271 708 0;
#X obj 223 668 t b;
#X obj 193 626 route 0 1;
#X obj 37 680 *~;
#X obj 47 645 osc~ 5;
#X obj 7 907 dac~;
#X obj 95 222 vsl 15 30 1 10 0 0 empty \$0-acidfilterresonance Resonance
0 -9 0 10 -262144 -1 -1 0 1;
#X obj 326 147 vsl 15 30 500 7000 0 0 empty \$0-acidfilterdecaytime
Filter_Decay_Time 0 -9 0 10 -262144 -1 -1 0 1;
#X floatatom 356 163 5 0 0 0 - - -;
#X obj 512 176 vsl 15 30 5000 70000 0 0 empty \$0-acidampdecaytime
Amp_Decay_Time 0 -9 0 10 -262144 -1 -1 0 1;
#X floatatom 512 214 10 0 0 0 - - -;
#X floatatom 95 268 5 0 0 0 - - -;
#X floatatom 56 85 5 0 0 0 - - -;
#N canvas -8 -8 1366 685 upper&lowerlimits 0;
#X obj 68 11 inlet;
#X obj 68 813 outlet;
#X floatatom 68 764 0 0 0 0 - - -;
#X floatatom 135 766 0 0 0 0 - - -;
#X obj 68 738 mod 12;
#X obj 135 740 div 12;
#X obj 68 709 t f f;
#X obj 68 788 +;
#X obj 171 792 * 12;
#X obj 135 792 +;
#X obj 68 34 moses 12;
#X obj 121 103 moses 24;
#X obj 174 174 moses 36;
#X obj 68 58 t f b;
#X msg 100 81 3;
#X obj 121 127 t f b;
#X msg 153 151 2;
#X obj 174 198 t f b;
#X msg 206 220 1;
#X obj 227 242 moses 60;
#X obj 227 266 t f b;
#X msg 259 290 0;
#X obj 280 313 moses 72;
#X obj 333 381 moses 84;
#X obj 386 458 moses 96;
#X obj 439 527 moses 108;
#X obj 499 596 moses 120;
#X obj 559 666 moses 132;
#X obj 280 337 t f b;
#X msg 312 359 -1;
#X obj 333 405 t f b;
#X obj 386 482 t f b;
#X obj 439 552 t f b;
#X obj 499 620 t f b;
#X obj 559 690 t f b;
#X msg 365 428 -2;
#X msg 418 505 -3;
#X msg 471 574 -4;
#X msg 531 643 -5;
#X msg 591 712 -6;
#X connect 0 0 10 0;
#X connect 2 0 7 0;
#X connect 3 0 9 0;
#X connect 4 0 2 0;
#X connect 5 0 3 0;
#X connect 6 0 4 0;
#X connect 6 1 5 0;
#X connect 7 0 1 0;
#X connect 8 0 7 1;
#X connect 9 0 8 0;
#X connect 10 0 13 0;
#X connect 10 1 11 0;
#X connect 11 0 15 0;
#X connect 11 1 12 0;
#X connect 12 0 17 0;
#X connect 12 1 19 0;
#X connect 13 0 6 0;
#X connect 13 1 14 0;
#X connect 14 0 9 1;
#X connect 15 0 6 0;
#X connect 15 1 16 0;
#X connect 16 0 9 1;
#X connect 17 0 6 0;
#X connect 17 1 18 0;
#X connect 18 0 9 1;
#X connect 19 0 20 0;
#X connect 19 1 22 0;
#X connect 20 0 6 0;
#X connect 20 1 21 0;
#X connect 21 0 9 1;
#X connect 22 0 28 0;
#X connect 22 1 23 0;
#X connect 23 0 30 0;
#X connect 23 1 24 0;
#X connect 24 0 31 0;
#X connect 24 1 25 0;
#X connect 25 0 32 0;
#X connect 25 1 26 0;
#X connect 26 0 33 0;
#X connect 26 1 27 0;
#X connect 27 0 34 0;
#X connect 28 0 6 0;
#X connect 28 1 29 0;
#X connect 29 0 9 1;
#X connect 30 0 6 0;
#X connect 30 1 35 0;
#X connect 31 0 6 0;
#X connect 31 1 36 0;
#X connect 32 0 6 0;
#X connect 32 1 37 0;
#X connect 33 0 6 0;
#X connect 33 1 38 0;
#X connect 34 0 6 0;
#X connect 34 1 39 0;
#X connect 35 0 9 1;
#X connect 36 0 9 1;
#X connect 37 0 9 1;
#X connect 38 0 9 1;
#X connect 39 0 9 1;
#X restore 56 60 pd upper&lowerlimits;
#X obj 56 36 inlet;
#X obj 7 840 *~ 0.1;
#X obj 10 483 *~ 2.5;
#X obj 56 108 t f b b, f 59;
#X connect 0 0 3 0;
#X connect 1 0 31 0;
#X connect 2 0 1 1;
#X connect 3 0 6 0;
#X connect 4 0 5 0;
#X connect 5 0 6 1;
#X connect 6 1 1 0;
#X connect 7 0 4 1;
#X connect 8 0 17 0;
#X connect 9 0 30 0;
#X connect 10 0 30 0;
#X connect 11 0 10 1;
#X connect 12 0 9 1;
#X connect 13 0 11 0;
#X connect 13 0 12 0;
#X connect 14 0 9 1;
#X connect 15 0 10 1;
#X connect 16 0 14 0;
#X connect 16 0 15 0;
#X connect 17 0 13 0;
#X connect 17 1 16 0;
#X connect 18 0 9 0;
#X connect 19 0 18 1;
#X connect 21 0 26 0;
#X connect 22 0 23 0;
#X connect 23 0 7 0;
#X connect 24 0 25 0;
#X connect 25 0 2 1;
#X connect 26 0 6 2;
#X connect 27 0 32 0;
#X connect 28 0 27 0;
#X connect 29 0 28 0;
#X connect 30 0 20 0;
#X connect 30 0 20 1;
#X connect 31 0 10 0;
#X connect 31 0 18 0;
#X connect 32 0 0 0;
#X connect 32 1 4 0;
#X connect 32 2 2 0;
#X coords 0 0 0.5 0.5 0 0 0;
#X restore 53 92 pd acidfilter;
#X text 0 129 ([pd acidfilter] limits MIDI pitches 36 - 60);
#X text 1 148 (original tutorial for building;
#X text 2 167 an acid filter: https://youtu.be/_qImZOcHz2U);
#X obj 322 100 t f f f;
#X floatatom 423 78 5 0 0 0 - - -;
#N canvas -8 -8 1366 685 newtest 0;
#X obj 991 628 bng 15 250 50 0 empty empty empty 17 7 0 10 -262144
-1 -1;
#X obj 264 212 expr if($f1 == $f2 \, $f1 \, $f3);
#X obj 296 61 key;
#X obj 296 85 sel 10;
#X msg 296 109 0;
#X msg 377 140 1;
#X obj 16 49 nbx 5 14 -127 127 0 0 empty empty empty 0 -8 0 10 -262144
-1 -1 10 256;
#X obj 16 114 route 0;
#X obj 16 193 t b f;
#X msg 264 259 add2 \$1;
#X msg 264 283;
#X msg 376 251 set;
#X msg 183 168 1;
#X obj 263 163 t b f;
#N canvas -8 -8 1366 685 new2 0;
#N canvas -8 -8 1366 685 new3 0;
#X obj 26 32 nbx 5 14 -127 127 0 0 empty empty empty 0 -8 0 10 -262144
-1 -1 0 256;
#X msg 46 185 add2 \$1;
#X msg 46 209 0 2 5 11 16 22 24 26 0;
#X msg 158 177 set;
#X obj 26 61 spigot 1;
#X msg 105 62 0;
#X msg 105 36 1;
#X obj 26 153 t b f f b;
#X connect 0 0 4 0;
#X connect 1 0 2 0;
#X connect 3 0 2 0;
#X connect 4 0 7 0;
#X connect 5 0 4 1;
#X connect 6 0 4 1;
#X connect 7 0 6 0;
#X connect 7 1 1 0;
#X connect 7 2 0 0;
#X connect 7 3 5 0;
#X restore 633 274 pd new3;
#X obj 262 19 nbx 5 14 -1e+037 1e+037 0 0 empty empty empty 0 -8 0
10 -262144 -1 -1 7 256;
#X obj 262 38 route 0;
#X obj 262 70 t f f;
#X obj 160 260 spigot;
#X obj 93 62 key;
#X obj 93 86 sel 10;
#X msg 264 262 1;
#X msg 262 202 0;
#X obj 160 284 t b b f;
#X obj 214 89 f;
#X obj 93 114 t b b;
#X obj 214 143 t b f;
#X obj 227 281 tgl 15 0 empty empty empty 17 7 0 10 -262144 -1 -1 1
1;
#X obj 214 114 route 0;
#X obj 244 231 t f f;
#X floatatom 436 303 5 0 0 0 - - -;
#X msg 523 247 add2 \$1;
#X msg 523 271 10 31 5 5 7;
#X msg 584 246 set;
#X connect 1 0 2 0;
#X connect 2 1 3 0;
#X connect 3 0 10 1;
#X connect 3 1 4 0;
#X connect 4 0 9 0;
#X connect 5 0 6 0;
#X connect 6 0 11 0;
#X connect 7 0 13 0;
#X connect 8 0 15 0;
#X connect 9 1 8 0;
#X connect 9 2 16 0;
#X connect 10 0 14 0;
#X connect 11 0 10 0;
#X connect 11 1 7 0;
#X connect 12 0 8 0;
#X connect 12 1 16 0;
#X connect 13 0 4 1;
#X connect 14 1 12 0;
#X connect 15 0 13 0;
#X connect 15 1 10 1;
#X connect 16 0 17 0;
#X connect 17 0 18 0;
#X connect 19 0 18 0;
#X restore 620 126 pd new2;
#X connect 1 0 9 0;
#X connect 2 0 3 0;
#X connect 3 0 4 0;
#X connect 4 0 1 1;
#X connect 5 0 1 1;
#X connect 6 0 7 0;
#X connect 7 0 8 0;
#X connect 7 1 13 0;
#X connect 8 0 5 0;
#X connect 8 1 1 0;
#X connect 9 0 10 0;
#X connect 11 0 10 0;
#X connect 12 0 1 0;
#X connect 13 0 12 0;
#X connect 13 1 1 2;
#X restore 90 250 pd newtest;
#N canvas -8 -8 1366 685 newtest2 0;
#N canvas -8 -8 1366 685 new2 0;
#N canvas -8 -8 1366 685 new3 0;
#X obj 26 32 nbx 5 14 -127 127 0 0 empty empty empty 0 -8 0 10 -262144
-1 -1 0 256;
#X msg 46 185 add2 \$1;
#X msg 46 209;
#X msg 158 177 set;
#X obj 26 61 spigot 1;
#X msg 105 62 0;
#X msg 105 36 1;
#X obj 26 153 t b f f b;
#X connect 0 0 4 0;
#X connect 1 0 2 0;
#X connect 3 0 2 0;
#X connect 4 0 7 0;
#X connect 5 0 4 1;
#X connect 6 0 4 1;
#X connect 7 0 6 0;
#X connect 7 1 1 0;
#X connect 7 2 0 0;
#X connect 7 3 5 0;
#X restore 460 25 pd new3;
#X obj 262 19 nbx 5 14 -1e+037 1e+037 0 0 empty empty empty 0 -8 0
10 -262144 -1 -1 0 256;
#X obj 262 38 route 0;
#X obj 262 70 t f f;
#X obj 160 260 spigot;
#X obj 93 62 key;
#X obj 93 86 sel 10;
#X msg 264 262 1;
#X msg 262 202 0;
#X obj 160 284 t b b f;
#X obj 214 89 f;
#X obj 93 114 t b b;
#X obj 214 143 t b f;
#X obj 227 281 tgl 15 0 empty empty empty 17 7 0 10 -262144 -1 -1 1
1;
#X obj 214 114 route 0;
#X obj 244 231 t f f;
#X floatatom 436 303 5 0 0 0 - - -;
#X msg 523 247 add2 \$1;
#X msg 523 271 5;
#X msg 584 246 set;
#X connect 1 0 2 0;
#X connect 2 1 3 0;
#X connect 3 0 10 1;
#X connect 3 1 4 0;
#X connect 4 0 9 0;
#X connect 5 0 6 0;
#X connect 6 0 11 0;
#X connect 7 0 13 0;
#X connect 8 0 15 0;
#X connect 9 1 8 0;
#X connect 9 2 16 0;
#X connect 10 0 14 0;
#X connect 11 0 10 0;
#X connect 11 1 7 0;
#X connect 12 0 8 0;
#X connect 12 1 16 0;
#X connect 13 0 4 1;
#X connect 14 1 12 0;
#X connect 15 0 13 0;
#X connect 15 1 10 1;
#X connect 16 0 17 0;
#X connect 17 0 18 0;
#X connect 19 0 18 0;
#X restore 19 350 pd new2;
#X obj 991 628 bng 15 250 50 0 empty empty empty 17 7 0 10 -262144
-1 -1;
#X obj 264 225 expr if($f1 == $f2 \, $f1 \, $f3);
#X obj 264 31 key;
#X obj 264 55 sel 10;
#X msg 296 131 0;
#X msg 364 154 1;
#X obj 16 206 t b f;
#X msg 296 274 add2 \$1;
#X msg 296 298 0 50 21 0;
#X msg 376 272 set;
#X msg 183 181 1;
#X obj 263 176 t b f;
#X obj 264 77 t b b;
#X obj 16 24 nbx 5 14 -1e+037 1e+037 0 0 empty empty empty 0 -8 0 10
-262144 -1 -1 0 256;
#X obj 16 83 route 0;
#X obj 601 102 t f f;
#X obj 499 292 spigot;
#X msg 603 294 1;
#X msg 601 234 0;
#X obj 499 316 t b b f;
#X obj 553 121 f;
#X obj 432 160 t b b;
#X obj 553 175 t b f;
#X obj 566 313 tgl 15 0 empty empty empty 17 7 0 10 -262144 -1 -1 0
1;
#X obj 553 146 route 0;
#X obj 583 263 t f f;
#X floatatom 495 233 5 0 0 0 - - -;
#X obj 16 53 spigot 1;
#X msg 86 66 0;
#X msg 88 26 1;
#X obj 264 252 t f f;
#X obj 179 253 t b f f b;
#X obj 199 282 outlet;
#X connect 2 0 31 0;
#X connect 3 0 4 0;
#X connect 4 0 13 0;
#X connect 5 0 2 1;
#X connect 6 0 2 1;
#X connect 7 0 6 0;
#X connect 7 1 2 0;
#X connect 8 0 9 0;
#X connect 10 0 9 0;
#X connect 11 0 2 0;
#X connect 12 0 11 0;
#X connect 12 1 2 2;
#X connect 13 0 22 0;
#X connect 13 1 5 0;
#X connect 14 0 28 0;
#X connect 15 0 7 0;
#X connect 15 1 16 0;
#X connect 16 0 21 1;
#X connect 16 1 17 0;
#X connect 17 0 20 0;
#X connect 18 0 24 0;
#X connect 19 0 26 0;
#X connect 20 1 19 0;
#X connect 20 2 27 0;
#X connect 21 0 25 0;
#X connect 22 0 21 0;
#X connect 22 1 18 0;
#X connect 23 0 19 0;
#X connect 23 1 27 0;
#X connect 24 0 17 1;
#X connect 25 1 23 0;
#X connect 26 0 24 0;
#X connect 26 1 21 1;
#X connect 27 0 12 0;
#X connect 28 0 15 0;
#X connect 29 0 28 1;
#X connect 30 0 28 1;
#X connect 31 0 32 0;
#X connect 31 1 8 0;
#X connect 32 0 30 0;
#X connect 32 1 33 0;
#X connect 32 2 14 0;
#X connect 32 3 29 0;
#X restore 89 284 pd newtest2;
#X connect 0 0 6 0;
#X connect 0 1 2 0;
#X connect 0 1 4 0;
#X connect 2 0 0 0;
#X connect 3 0 0 0;
#X connect 6 0 1 0;
#X connect 6 0 5 0;
#X connect 6 1 2 0;
#X connect 7 0 6 2;
#X connect 7 1 9 1;
#X connect 8 0 14 0;
#X connect 9 0 8 0;
#X connect 9 0 15 0;
#X connect 10 0 17 0;
#X connect 11 0 22 0;
#X connect 12 0 7 0;
#X connect 13 0 14 0;
#X connect 14 0 18 0;
#X connect 15 0 13 0;
#X connect 17 0 11 0;
#X connect 17 1 12 0;
#X connect 17 2 16 0;
#X connect 22 0 6 1;
#X connect 22 1 9 0;
#X connect 22 2 14 1;
#X connect 23 0 7 0;
#X coords 0 171.25 0.5 170.75 85 60 0;
